<?xml version="1.0" encoding="UTF-8" standalone="no"?>
<svg
   xmlns:dc="http://purl.org/dc/elements/1.1/"
   xmlns:cc="http://creativecommons.org/ns#"
   xmlns:rdf="http://www.w3.org/1999/02/22-rdf-syntax-ns#"
   xmlns:svg="http://www.w3.org/2000/svg"
   xmlns="http://www.w3.org/2000/svg"
   xmlns:sodipodi="http://sodipodi.sourceforge.net/DTD/sodipodi-0.dtd"
   xmlns:inkscape="http://www.inkscape.org/namespaces/inkscape"
   width="36.724167mm"
   height="24.680332mm"
   viewBox="0 0 36.724167 24.680332"
   version="1.1"
   id="svg6615"
   inkscape:version="1.0.2 (e86c870879, 2021-01-15)"
   sodipodi:docname="fig4.svg">
  <defs
     id="defs6609" />
  <sodipodi:namedview
     id="base"
     pagecolor="#ffffff"
     bordercolor="#666666"
     borderopacity="1.0"
     inkscape:pageopacity="0.0"
     inkscape:pageshadow="2"
     inkscape:zoom="3.959798"
     inkscape:cx="58.387863"
     inkscape:cy="35.522543"
     inkscape:document-units="mm"
     inkscape:current-layer="layer1"
     inkscape:document-rotation="0"
     showgrid="false"
     fit-margin-top="0"
     fit-margin-left="0"
     fit-margin-right="0"
     fit-margin-bottom="0"
     inkscape:window-width="1920"
     inkscape:window-height="1136"
     inkscape:window-x="0"
     inkscape:window-y="27"
     inkscape:window-maximized="1" />
  <metadata
     id="metadata6612">
    <rdf:RDF>
      <cc:Work
         rdf:about="">
        <dc:format>image/svg+xml</dc:format>
        <dc:type
           rdf:resource="http://purl.org/dc/dcmitype/StillImage" />
        <dc:title></dc:title>
      </cc:Work>
    </rdf:RDF>
  </metadata>
  <g
     inkscape:label="Calque 1"
     inkscape:groupmode="layer"
     id="layer1"
     transform="translate(-303.67363,-62.499121)">
    <g
       id="g6562"
       transform="matrix(0.35277777,0,0,-0.35277777,209.47138,110.53687)">
      <path
         d="m 272.22,128.58 v 0.12 0.12 l -0.06,0.12 v 0.12 l -0.06,0.12 -0.06,0.06 -0.06,0.12 -0.12,0.06 -0.06,0.12 -0.12,0.06 -0.12,0.06 h -0.12 l -0.12,0.06 h -0.12 -0.12"
         style="fill:none;stroke:#000000;stroke-width:1.14;stroke-linecap:round;stroke-linejoin:round;stroke-miterlimit:10;stroke-dasharray:none;stroke-opacity:1"
         id="path3768" />
      <path
         d="M 272.22,128.58 V 125.1"
         style="fill:none;stroke:#000000;stroke-width:1.14;stroke-linecap:round;stroke-linejoin:round;stroke-miterlimit:10;stroke-dasharray:none;stroke-opacity:1"
         id="path3770" />
      <path
         d="m 333.66,83.1 v 0.12 0.12 0.12 0.12 l -0.06,0.12 v 0.12 0.12 l -0.06,0.12 -0.06,0.12 v 0.12 l -0.06,0.12 -0.06,0.06 -0.06,0.12 -0.06,0.12 -0.06,0.12 -0.06,0.06 -0.06,0.12 -0.06,0.06 -0.12,0.12 -0.06,0.06 -0.06,0.12 -0.12,0.06 -0.06,0.12 -0.12,0.06 -0.12,0.06 -0.06,0.06 -0.12,0.06 -0.12,0.06 -0.06,0.06 -0.12,0.06 -0.12,0.06 h -0.12 l -0.12,0.06 -0.12,0.06 h -0.12 l -0.12,0.06 h -0.12 -0.12 -0.12 l -0.12,0.06 h -0.12 -0.12 -0.12 l -0.12,-0.06 h -0.12 -0.12 l -0.12,-0.06 h -0.06 l -0.12,-0.06 h -0.12 l -0.12,-0.06 -0.12,-0.06 -0.12,-0.06 h -0.12 l -0.06,-0.06 -0.12,-0.06 -0.12,-0.12 -0.06,-0.06 -0.12,-0.06 -0.06,-0.06 -0.12,-0.12 -0.06,-0.06 -0.12,-0.06 -0.06,-0.12 -0.06,-0.06 -0.12,-0.12 -0.06,-0.12 -0.06,-0.06 -0.06,-0.12 -0.06,-0.12 -0.06,-0.12 V 84.3 l -0.06,-0.06 -0.06,-0.12 V 84 l -0.06,-0.12 v -0.12 l -0.06,-0.12 V 83.52 83.4 83.28 83.16 83.04 82.92 82.8 82.68 82.56 l 0.06,-0.12 v -0.12 l 0.06,-0.12 v -0.12 l 0.06,-0.12 0.06,-0.06 0.06,-0.12 v -0.12 l 0.06,-0.12 0.06,-0.06 0.12,-0.12 0.06,-0.12 0.06,-0.06 0.06,-0.12 0.06,-0.06 0.12,-0.12 0.06,-0.06 0.12,-0.12 0.06,-0.06 0.12,-0.06 0.12,-0.06 0.06,-0.06 0.12,-0.06 0.12,-0.06 0.06,-0.06 0.12,-0.06 0.12,-0.06 h 0.12 l 0.12,-0.06 0.12,-0.06 h 0.12 0.12 l 0.12,-0.06 h 0.12 0.12 0.12 0.12 0.12 0.12 0.12 0.12 l 0.12,0.06 h 0.12 l 0.12,0.06 h 0.06 l 0.12,0.06 0.12,0.06 0.12,0.06 h 0.12 l 0.12,0.06 0.06,0.06 0.12,0.06 0.12,0.12 0.06,0.06 0.12,0.06 0.06,0.06 0.12,0.12 0.06,0.06 0.12,0.12 0.06,0.06 0.06,0.12 0.06,0.06 0.06,0.12 0.06,0.12 0.06,0.12 0.06,0.06 0.06,0.12 0.06,0.12 0.06,0.12 v 0.12 l 0.06,0.12 v 0.12 l 0.06,0.12 v 0.12 0.12 0.12 0.12 z"
         style="fill:none;stroke:#000000;stroke-width:1.14;stroke-linecap:round;stroke-linejoin:round;stroke-miterlimit:10;stroke-dasharray:none;stroke-opacity:1"
         id="path3704" />
      <path
         d="m 368.64,83.1 v 0.12 0.12 0.12 0.12 l -0.06,0.12 v 0.12 0.12 l -0.06,0.12 -0.06,0.12 v 0.12 l -0.06,0.12 -0.06,0.06 -0.06,0.12 -0.06,0.12 -0.06,0.12 -0.06,0.06 -0.06,0.12 -0.06,0.06 -0.12,0.12 -0.06,0.06 -0.12,0.12 -0.06,0.06 -0.06,0.12 -0.12,0.06 -0.12,0.06 -0.06,0.06 -0.12,0.06 -0.12,0.06 -0.12,0.06 -0.06,0.06 -0.12,0.06 h -0.12 l -0.12,0.06 -0.12,0.06 h -0.12 l -0.12,0.06 h -0.12 -0.12 -0.12 l -0.12,0.06 h -0.12 -0.12 -0.12 l -0.12,-0.06 h -0.12 -0.12 l -0.12,-0.06 h -0.06 l -0.12,-0.06 h -0.12 l -0.12,-0.06 -0.12,-0.06 -0.12,-0.06 h -0.12 l -0.06,-0.06 -0.12,-0.06 -0.12,-0.12 -0.06,-0.06 -0.12,-0.06 -0.12,-0.06 -0.06,-0.12 -0.06,-0.06 -0.12,-0.06 -0.06,-0.12 -0.06,-0.06 -0.12,-0.12 -0.06,-0.12 -0.06,-0.06 -0.06,-0.12 -0.06,-0.12 -0.06,-0.12 V 84.3 l -0.06,-0.06 -0.06,-0.12 V 84 l -0.06,-0.12 V 83.76 L 362.4,83.64 V 83.52 83.4 83.28 l -0.06,-0.12 v -0.12 l 0.06,-0.12 V 82.8 82.68 82.56 l 0.06,-0.12 v -0.12 l 0.06,-0.12 v -0.12 l 0.06,-0.12 0.06,-0.06 0.06,-0.12 v -0.12 l 0.06,-0.12 0.06,-0.06 0.06,-0.12 0.12,-0.12 0.06,-0.06 0.06,-0.12 0.06,-0.06 0.12,-0.12 0.06,-0.06 0.12,-0.12 0.06,-0.06 0.12,-0.06 0.12,-0.06 0.06,-0.06 0.12,-0.06 0.12,-0.06 0.06,-0.06 0.12,-0.06 0.12,-0.06 h 0.12 l 0.12,-0.06 0.12,-0.06 h 0.12 0.12 l 0.12,-0.06 h 0.12 0.12 0.12 0.12 0.12 0.12 0.12 0.12 l 0.12,0.06 h 0.12 l 0.12,0.06 h 0.06 l 0.12,0.06 0.12,0.06 0.12,0.06 h 0.12 l 0.12,0.06 0.06,0.06 0.12,0.06 0.12,0.12 0.06,0.06 0.12,0.06 0.06,0.06 0.12,0.12 0.06,0.06 0.06,0.12 0.12,0.06 0.06,0.12 0.06,0.06 0.06,0.12 0.06,0.12 0.06,0.12 0.06,0.06 0.06,0.12 0.06,0.12 v 0.12 l 0.06,0.12 0.06,0.12 v 0.12 l 0.06,0.12 v 0.12 0.12 0.12 0.12 z"
         style="fill:none;stroke:#000000;stroke-width:1.14;stroke-linecap:round;stroke-linejoin:round;stroke-miterlimit:10;stroke-dasharray:none;stroke-opacity:1"
         id="path3706" />
      <path
         d="m 368.64,118.08 v 0.12 0.12 0.12 0.12 l -0.06,0.12 v 0.12 0.12 l -0.06,0.12 -0.06,0.12 v 0.12 l -0.06,0.12 -0.06,0.06 -0.06,0.12 -0.06,0.12 -0.06,0.12 -0.06,0.06 -0.06,0.12 -0.06,0.06 -0.12,0.12 -0.06,0.06 -0.12,0.12 -0.06,0.06 -0.06,0.06 -0.12,0.12 -0.12,0.06 -0.06,0.06 -0.12,0.06 -0.12,0.06 -0.12,0.06 -0.06,0.06 -0.12,0.06 h -0.12 l -0.12,0.06 -0.12,0.06 h -0.12 l -0.12,0.06 h -0.12 -0.12 -0.12 l -0.12,0.06 h -0.12 -0.12 -0.12 l -0.12,-0.06 h -0.12 -0.12 l -0.12,-0.06 h -0.06 l -0.12,-0.06 h -0.12 l -0.12,-0.06 -0.12,-0.06 -0.12,-0.06 h -0.12 l -0.06,-0.06 -0.12,-0.06 -0.12,-0.12 -0.06,-0.06 -0.12,-0.06 -0.12,-0.06 -0.06,-0.12 -0.06,-0.06 -0.12,-0.06 -0.06,-0.12 -0.06,-0.12 -0.12,-0.06 -0.06,-0.12 -0.06,-0.06 -0.06,-0.12 -0.06,-0.12 -0.06,-0.12 v -0.12 l -0.06,-0.06 -0.06,-0.12 v -0.12 l -0.06,-0.12 v -0.12 l -0.06,-0.12 v -0.12 -0.12 -0.12 l -0.06,-0.12 v -0.12 l 0.06,-0.12 v -0.12 -0.12 -0.12 l 0.06,-0.12 v -0.12 l 0.06,-0.12 v -0.12 l 0.06,-0.12 0.06,-0.06 0.06,-0.12 v -0.12 l 0.06,-0.12 0.06,-0.12 0.06,-0.06 0.12,-0.12 0.06,-0.06 0.06,-0.12 0.06,-0.06 0.12,-0.12 0.06,-0.06 0.12,-0.12 0.06,-0.06 0.12,-0.06 0.12,-0.06 0.06,-0.06 0.12,-0.06 0.12,-0.06 0.06,-0.06 0.12,-0.06 0.12,-0.06 h 0.12 l 0.12,-0.06 0.12,-0.06 h 0.12 0.12 l 0.12,-0.06 h 0.12 0.12 0.12 0.12 0.12 0.12 0.12 0.12 l 0.12,0.06 h 0.12 l 0.12,0.06 h 0.06 l 0.12,0.06 0.12,0.06 0.12,0.06 h 0.12 l 0.12,0.06 0.06,0.06 0.12,0.06 0.12,0.12 0.06,0.06 0.12,0.06 0.06,0.06 0.12,0.12 0.06,0.06 0.06,0.12 0.12,0.06 0.06,0.12 0.06,0.06 0.06,0.12 0.06,0.12 0.06,0.12 0.06,0.06 0.06,0.12 0.06,0.12 v 0.12 l 0.06,0.12 0.06,0.12 v 0.12 l 0.06,0.12 v 0.12 0.12 0.12 0.12 z"
         style="fill:none;stroke:#000000;stroke-width:1.14;stroke-linecap:round;stroke-linejoin:round;stroke-miterlimit:10;stroke-dasharray:none;stroke-opacity:1"
         id="path3708" />
      <path
         d="m 332.76,85.32 30.54,30.54"
         style="fill:none;stroke:#000000;stroke-width:1.14;stroke-linecap:round;stroke-linejoin:round;stroke-miterlimit:10;stroke-dasharray:none;stroke-opacity:1"
         id="path3710" />
      <path
         d="m 334.02,83.1 h 28.02"
         style="fill:none;stroke:#000000;stroke-width:1.14;stroke-linecap:round;stroke-linejoin:round;stroke-miterlimit:10;stroke-dasharray:none;stroke-opacity:1"
         id="path3712" />
      <path
         d="M 365.52,86.64 V 114.6"
         style="fill:none;stroke:#000000;stroke-width:1.14;stroke-linecap:round;stroke-linejoin:round;stroke-miterlimit:10;stroke-dasharray:none;stroke-opacity:1"
         id="path3714" />
      <path
         d="m 369,66.78 h 0.42"
         style="fill:none;stroke:#000000;stroke-width:1.14;stroke-linecap:round;stroke-linejoin:round;stroke-miterlimit:10;stroke-dasharray:none;stroke-opacity:1"
         id="path3716" />
      <path
         d="m 369.42,66.78 h 0.12 l 0.12,0.06 h 0.12 l 0.06,0.06 0.12,0.06 0.12,0.06 0.12,0.06 0.06,0.06 0.06,0.12 0.06,0.12 0.06,0.06 0.06,0.12 0.06,0.12 v 0.12 0.12 0.06"
         style="fill:none;stroke:#000000;stroke-width:1.14;stroke-linecap:round;stroke-linejoin:round;stroke-miterlimit:10;stroke-dasharray:none;stroke-opacity:1"
         id="path3718" />
      <path
         d="M 370.56,67.98 V 73.8"
         style="fill:none;stroke:#000000;stroke-width:1.14;stroke-linecap:round;stroke-linejoin:round;stroke-miterlimit:10;stroke-dasharray:none;stroke-opacity:1"
         id="path3720" />
      <path
         d="m 370.56,75.72 v 0.42"
         style="fill:none;stroke:#000000;stroke-width:1.14;stroke-linecap:round;stroke-linejoin:round;stroke-miterlimit:10;stroke-dasharray:none;stroke-opacity:1"
         id="path3722" />
      <path
         d="m 364.38,125.1 v 4.62"
         style="fill:none;stroke:#000000;stroke-width:1.14;stroke-linecap:round;stroke-linejoin:round;stroke-miterlimit:10;stroke-dasharray:none;stroke-opacity:1"
         id="path3724" />
      <path
         d="m 362.04,125.1 v 4.62"
         style="fill:none;stroke:#000000;stroke-width:1.14;stroke-linecap:round;stroke-linejoin:round;stroke-miterlimit:10;stroke-dasharray:none;stroke-opacity:1"
         id="path3726" />
      <path
         d="m 362.04,129.72 h 3.48"
         style="fill:none;stroke:#000000;stroke-width:1.14;stroke-linecap:round;stroke-linejoin:round;stroke-miterlimit:10;stroke-dasharray:none;stroke-opacity:1"
         id="path3728" />
      <path
         d="m 366.66,128.58 v 0.12 0.12 l -0.06,0.12 v 0.12 l -0.06,0.12 -0.06,0.06 -0.06,0.12 -0.12,0.06 -0.06,0.12 -0.12,0.06 -0.12,0.06 h -0.12 l -0.12,0.06 h -0.12 -0.12"
         style="fill:none;stroke:#000000;stroke-width:1.14;stroke-linecap:round;stroke-linejoin:round;stroke-miterlimit:10;stroke-dasharray:none;stroke-opacity:1"
         id="path3730" />
      <path
         d="M 366.66,128.58 V 125.1"
         style="fill:none;stroke:#000000;stroke-width:1.14;stroke-linecap:round;stroke-linejoin:round;stroke-miterlimit:10;stroke-dasharray:none;stroke-opacity:1"
         id="path3732" />
      <path
         d="m 274.2,83.1 v 0.12 0.12 0.12 0.12 l -0.06,0.12 v 0.12 0.12 l -0.06,0.12 -0.06,0.12 v 0.12 l -0.06,0.12 -0.06,0.06 -0.06,0.12 -0.06,0.12 -0.06,0.12 -0.06,0.06 -0.06,0.12 -0.06,0.06 -0.12,0.12 -0.06,0.06 -0.12,0.12 -0.06,0.06 -0.06,0.12 -0.12,0.06 -0.12,0.06 -0.06,0.06 -0.12,0.06 -0.12,0.06 -0.12,0.06 -0.06,0.06 -0.12,0.06 h -0.12 l -0.12,0.06 -0.12,0.06 h -0.12 l -0.12,0.06 h -0.12 -0.12 -0.12 l -0.12,0.06 h -0.12 -0.12 -0.12 l -0.12,-0.06 h -0.12 -0.12 l -0.12,-0.06 h -0.06 l -0.12,-0.06 h -0.12 l -0.12,-0.06 -0.12,-0.06 -0.12,-0.06 h -0.12 l -0.06,-0.06 -0.12,-0.06 -0.12,-0.12 -0.06,-0.06 -0.12,-0.06 -0.12,-0.06 -0.06,-0.12 -0.06,-0.06 -0.12,-0.06 -0.06,-0.12 -0.06,-0.06 -0.12,-0.12 -0.06,-0.12 -0.06,-0.06 -0.06,-0.12 -0.06,-0.12 -0.06,-0.12 V 84.3 l -0.06,-0.06 -0.06,-0.12 V 84 l -0.06,-0.12 v -0.12 l -0.06,-0.12 V 83.52 83.4 83.28 l -0.06,-0.12 v -0.12 l 0.06,-0.12 V 82.8 82.68 82.56 l 0.06,-0.12 v -0.12 l 0.06,-0.12 v -0.12 l 0.06,-0.12 0.06,-0.06 0.06,-0.12 v -0.12 l 0.06,-0.12 0.06,-0.06 0.06,-0.12 0.12,-0.12 0.06,-0.06 0.06,-0.12 0.06,-0.06 0.12,-0.12 0.06,-0.06 0.12,-0.12 0.06,-0.06 0.12,-0.06 0.12,-0.06 0.06,-0.06 0.12,-0.06 0.12,-0.06 0.06,-0.06 0.12,-0.06 0.12,-0.06 h 0.12 l 0.12,-0.06 0.12,-0.06 h 0.12 0.12 l 0.12,-0.06 h 0.12 0.12 0.12 0.12 0.12 0.12 0.12 0.12 l 0.12,0.06 h 0.12 l 0.12,0.06 h 0.06 l 0.12,0.06 0.12,0.06 0.12,0.06 h 0.12 l 0.12,0.06 0.06,0.06 0.12,0.06 0.12,0.12 0.06,0.06 0.12,0.06 0.06,0.06 0.12,0.12 0.06,0.06 0.06,0.12 0.12,0.06 0.06,0.12 0.06,0.06 0.06,0.12 0.06,0.12 0.06,0.12 0.06,0.06 0.06,0.12 0.06,0.12 v 0.12 l 0.06,0.12 0.06,0.12 v 0.12 l 0.06,0.12 v 0.12 0.12 0.12 0.12 z"
         style="fill:none;stroke:#000000;stroke-width:1.14;stroke-linecap:round;stroke-linejoin:round;stroke-miterlimit:10;stroke-dasharray:none;stroke-opacity:1"
         id="path3734" />
      <path
         d="m 274.2,118.08 v 0.12 0.12 0.12 0.12 l -0.06,0.12 v 0.12 0.12 l -0.06,0.12 -0.06,0.12 v 0.12 l -0.06,0.12 -0.06,0.06 -0.06,0.12 -0.06,0.12 -0.06,0.12 -0.06,0.06 -0.06,0.12 -0.06,0.06 -0.12,0.12 -0.06,0.06 -0.12,0.12 -0.06,0.06 -0.06,0.06 -0.12,0.12 -0.12,0.06 -0.06,0.06 -0.12,0.06 -0.12,0.06 -0.12,0.06 -0.06,0.06 -0.12,0.06 h -0.12 l -0.12,0.06 -0.12,0.06 h -0.12 l -0.12,0.06 h -0.12 -0.12 -0.12 l -0.12,0.06 h -0.12 -0.12 -0.12 l -0.12,-0.06 h -0.12 -0.12 l -0.12,-0.06 h -0.06 l -0.12,-0.06 h -0.12 l -0.12,-0.06 -0.12,-0.06 -0.12,-0.06 h -0.12 l -0.06,-0.06 -0.12,-0.06 -0.12,-0.12 -0.06,-0.06 -0.12,-0.06 -0.12,-0.06 -0.06,-0.12 -0.06,-0.06 -0.12,-0.06 -0.06,-0.12 -0.06,-0.12 -0.12,-0.06 -0.06,-0.12 -0.06,-0.06 -0.06,-0.12 -0.06,-0.12 -0.06,-0.12 v -0.12 l -0.06,-0.06 -0.06,-0.12 v -0.12 l -0.06,-0.12 v -0.12 l -0.06,-0.12 v -0.12 -0.12 -0.12 l -0.06,-0.12 v -0.12 l 0.06,-0.12 v -0.12 -0.12 -0.12 l 0.06,-0.12 v -0.12 l 0.06,-0.12 v -0.12 l 0.06,-0.12 0.06,-0.06 0.06,-0.12 v -0.12 l 0.06,-0.12 0.06,-0.12 0.06,-0.06 0.12,-0.12 0.06,-0.06 0.06,-0.12 0.06,-0.06 0.12,-0.12 0.06,-0.06 0.12,-0.12 0.06,-0.06 0.12,-0.06 0.12,-0.06 0.06,-0.06 0.12,-0.06 0.12,-0.06 0.06,-0.06 0.12,-0.06 0.12,-0.06 h 0.12 l 0.12,-0.06 0.12,-0.06 h 0.12 0.12 l 0.12,-0.06 h 0.12 0.12 0.12 0.12 0.12 0.12 0.12 0.12 l 0.12,0.06 h 0.12 l 0.12,0.06 h 0.06 l 0.12,0.06 0.12,0.06 0.12,0.06 h 0.12 l 0.12,0.06 0.06,0.06 0.12,0.06 0.12,0.12 0.06,0.06 0.12,0.06 0.06,0.06 0.12,0.12 0.06,0.06 0.06,0.12 0.12,0.06 0.06,0.12 0.06,0.06 0.06,0.12 0.06,0.12 0.06,0.12 0.06,0.06 0.06,0.12 0.06,0.12 v 0.12 l 0.06,0.12 0.06,0.12 v 0.12 l 0.06,0.12 v 0.12 0.12 0.12 0.12 z"
         style="fill:none;stroke:#000000;stroke-width:1.14;stroke-linecap:round;stroke-linejoin:round;stroke-miterlimit:10;stroke-dasharray:none;stroke-opacity:1"
         id="path3736" />
      <path
         d="m 309.18,118.08 v 0.12 0.12 0.12 0.12 l -0.06,0.12 v 0.12 0.12 l -0.06,0.12 -0.06,0.12 v 0.12 l -0.06,0.12 -0.06,0.06 -0.06,0.12 -0.06,0.12 -0.06,0.12 -0.06,0.06 -0.06,0.12 -0.06,0.06 -0.12,0.12 -0.06,0.06 -0.12,0.12 -0.06,0.06 -0.12,0.06 -0.06,0.12 -0.12,0.06 -0.06,0.06 -0.12,0.06 -0.12,0.06 -0.12,0.06 -0.06,0.06 -0.12,0.06 h -0.12 l -0.12,0.06 -0.12,0.06 h -0.12 l -0.12,0.06 h -0.12 -0.12 -0.12 l -0.12,0.06 h -0.12 -0.12 -0.12 l -0.12,-0.06 h -0.12 -0.12 l -0.12,-0.06 h -0.12 l -0.06,-0.06 h -0.12 l -0.12,-0.06 -0.12,-0.06 -0.12,-0.06 h -0.12 l -0.06,-0.06 -0.12,-0.06 -0.12,-0.12 -0.06,-0.06 -0.12,-0.06 -0.12,-0.06 -0.06,-0.12 -0.06,-0.06 -0.12,-0.06 -0.06,-0.12 -0.06,-0.12 -0.12,-0.06 -0.06,-0.12 -0.06,-0.06 -0.06,-0.12 -0.06,-0.12 -0.06,-0.12 v -0.12 l -0.06,-0.06 -0.06,-0.12 v -0.12 L 303,118.86 v -0.12 l -0.06,-0.12 v -0.12 -0.12 -0.12 l -0.06,-0.12 v -0.12 l 0.06,-0.12 v -0.12 -0.12 -0.12 l 0.06,-0.12 v -0.12 l 0.06,-0.12 v -0.12 l 0.06,-0.12 0.06,-0.06 v -0.12 l 0.06,-0.12 0.06,-0.12 0.06,-0.12 0.06,-0.06 0.12,-0.12 0.06,-0.06 0.06,-0.12 0.06,-0.06 0.12,-0.12 0.06,-0.06 0.12,-0.12 0.06,-0.06 0.12,-0.06 0.06,-0.06 0.12,-0.06 0.12,-0.06 0.12,-0.06 0.06,-0.06 0.12,-0.06 0.12,-0.06 h 0.12 l 0.12,-0.06 0.12,-0.06 h 0.12 0.12 l 0.12,-0.06 h 0.12 0.12 0.12 0.12 0.12 0.12 0.12 0.12 l 0.12,0.06 h 0.12 l 0.06,0.06 h 0.12 l 0.12,0.06 0.12,0.06 0.12,0.06 h 0.12 l 0.12,0.06 0.06,0.06 0.12,0.06 0.12,0.12 0.06,0.06 0.12,0.06 0.06,0.06 0.12,0.12 0.06,0.06 0.06,0.12 0.12,0.06 0.06,0.12 0.06,0.06 0.06,0.12 0.06,0.12 0.06,0.12 0.06,0.06 0.06,0.12 0.06,0.12 v 0.12 l 0.06,0.12 0.06,0.12 v 0.12 0.12 l 0.06,0.12 v 0.12 0.12 0.12 z"
         style="fill:none;stroke:#000000;stroke-width:1.14;stroke-linecap:round;stroke-linejoin:round;stroke-miterlimit:10;stroke-dasharray:none;stroke-opacity:1"
         id="path3738" />
      <path
         d="M 271.08,86.64 V 114.6"
         style="fill:none;stroke:#000000;stroke-width:1.14;stroke-linecap:round;stroke-linejoin:round;stroke-miterlimit:10;stroke-dasharray:none;stroke-opacity:1"
         id="path3740" />
      <path
         d="m 274.56,118.08 h 28.02"
         style="fill:none;stroke:#000000;stroke-width:1.14;stroke-linecap:round;stroke-linejoin:round;stroke-miterlimit:10;stroke-dasharray:none;stroke-opacity:1"
         id="path3742" />
      <path
         d="m 273.3,85.32 30.54,30.54"
         style="fill:none;stroke:#000000;stroke-width:1.14;stroke-linecap:round;stroke-linejoin:round;stroke-miterlimit:10;stroke-dasharray:none;stroke-opacity:1"
         id="path3744" />
      <path
         d="M 330.54,69.12 V 73.8"
         style="fill:none;stroke:#000000;stroke-width:1.14;stroke-linecap:round;stroke-linejoin:round;stroke-miterlimit:10;stroke-dasharray:none;stroke-opacity:1"
         id="path3746" />
      <path
         d="m 330.54,75.72 v 0.42"
         style="fill:none;stroke:#000000;stroke-width:1.14;stroke-linecap:round;stroke-linejoin:round;stroke-miterlimit:10;stroke-dasharray:none;stroke-opacity:1"
         id="path3748" />
      <path
         d="M 271.08,69.12 V 73.8"
         style="fill:none;stroke:#000000;stroke-width:1.14;stroke-linecap:round;stroke-linejoin:round;stroke-miterlimit:10;stroke-dasharray:none;stroke-opacity:1"
         id="path3750" />
      <path
         d="m 271.08,75.72 v 0.42"
         style="fill:none;stroke:#000000;stroke-width:1.14;stroke-linecap:round;stroke-linejoin:round;stroke-miterlimit:10;stroke-dasharray:none;stroke-opacity:1"
         id="path3752" />
      <path
         d="m 306.06,126.24 h 0.36"
         style="fill:none;stroke:#000000;stroke-width:1.14;stroke-linecap:round;stroke-linejoin:round;stroke-miterlimit:10;stroke-dasharray:none;stroke-opacity:1"
         id="path3754" />
      <path
         d="m 306.42,126.24 h 0.12 l 0.12,0.06 h 0.12 l 0.12,0.06 0.12,0.06 0.12,0.06 0.06,0.06 0.12,0.06 0.06,0.12 0.06,0.12 0.06,0.06 0.06,0.12 v 0.12 l 0.06,0.12 v 0.12 0.06"
         style="fill:none;stroke:#000000;stroke-width:1.14;stroke-linecap:round;stroke-linejoin:round;stroke-miterlimit:10;stroke-dasharray:none;stroke-opacity:1"
         id="path3756" />
      <path
         d="m 307.62,127.44 v 5.82"
         style="fill:none;stroke:#000000;stroke-width:1.14;stroke-linecap:round;stroke-linejoin:round;stroke-miterlimit:10;stroke-dasharray:none;stroke-opacity:1"
         id="path3758" />
      <path
         d="m 307.62,135.18 v 0.42"
         style="fill:none;stroke:#000000;stroke-width:1.14;stroke-linecap:round;stroke-linejoin:round;stroke-miterlimit:10;stroke-dasharray:none;stroke-opacity:1"
         id="path3760" />
      <path
         d="m 269.94,125.1 v 4.62"
         style="fill:none;stroke:#000000;stroke-width:1.14;stroke-linecap:round;stroke-linejoin:round;stroke-miterlimit:10;stroke-dasharray:none;stroke-opacity:1"
         id="path3762" />
      <path
         d="m 267.6,125.1 v 4.62"
         style="fill:none;stroke:#000000;stroke-width:1.14;stroke-linecap:round;stroke-linejoin:round;stroke-miterlimit:10;stroke-dasharray:none;stroke-opacity:1"
         id="path3764" />
      <path
         d="m 267.6,129.72 h 3.48"
         style="fill:none;stroke:#000000;stroke-width:1.14;stroke-linecap:round;stroke-linejoin:round;stroke-miterlimit:10;stroke-dasharray:none;stroke-opacity:1"
         id="path3766" />
    </g>
  </g>
</svg>
